PathFileType	4	(X/Y/Z)	C:\human.trc
DataRate	CameraRate	NumFrames	NumMarkers	Units	OrigDataRate	OrigDataStartFrame	OrigNumFrames
200.00	200.00	      7	35	mm	200.00	2089	      2387
Frame#	Time	HEADF			HEADR			HEADL			RSHO			RELBL			RELBM			RWRISTR			RWRISTU			RMP			LSHO			LELBL			LELBM			LWRISTR			LWRISTU			LMP			RPEL			RHIP			RKNEEO			RANK			RHEEL			RPINKY			RTHUMB			LPEL			LHIP			LKNEEO			LANK			LHEEL			LPINKY			LTHUMB			T1			T7			L5			STERNUP			STERNLOW			SCAP			
		X1	Y1	Z1	X2	Y2	Z2	X3	Y3	Z3	X4	Y4	Z4	X5	Y5	Z5	X6	Y6	Z6	X7	Y7	Z7	X8	Y8	Z8	X9	Y9	Z9	X10	Y10	Z10	X11	Y11	Z11	X12	Y12	Z12	X13	Y13	Z13	X14	Y14	Z14	X15	Y15	Z15	X16	Y16	Z16	X17	Y17	Z17	X18	Y18	Z18	X19	Y19	Z19	X20	Y20	Z20	X21	Y21	Z21	X22	Y22	Z22	X23	Y23	Z23	X24	Y24	Z24	X25	Y25	Z25	X26	Y26	Z26	X27	Y27	Z27	X28	Y28	Z28	X29	Y29	Z29	X30	Y30	Z30	X31	Y31	Z31	X32	Y32	Z32	X33	Y33	Z33	X34	Y34	Z34	X35	Y35	Z35	

2089	10.440	-75.61473	611.35724	1540.71423	-154.12535	709.02881	1493.59802	1.89454	634.98865	1540.87805	-212.82178	719.77759	1294.54382	-314.02231	699.47662	991.94452	-264.39438	743.78491	975.73651	-259.10089	589.36609	794.49316	-307.28244	631.33392	776.32404	-314.52597	567.73883	723.46643	114.20471	706.75800	1314.53442	244.65788	703.88354	1033.95923	191.15646	760.44751	1010.83990	213.94290	648.96576	814.46259	268.94608	683.14929	813.02826	276.48596	635.54150	732.22870	-159.81015	725.43628	869.18353	-196.94858	798.61713	837.33704	-157.22145	818.78711	416.76019				-49.41052	989.98517	64.45695	-159.98521	870.87854	39.04337	-101.89502	802.37683	47.78141	72.78843	694.98358	881.75299	136.56931	757.95972	832.28717	179.70842	604.47040	490.22205	194.73740	640.62708	118.57394	141.43509	676.26062	81.73885	231.10640	535.80432	66.15255	163.34401	492.03989	85.49228	-56.26108	779.76172	1355.41174	-34.52982	846.23169	1200.47095	-24.17715	868.63788	941.07166	-48.63808	667.46912	1252.65710	-49.14008	647.39020	1121.46680	-157.88591	849.64142	1182.66711	
2090	10.445	-76.09567	614.64734	1541.53345	-154.61887	712.39331	1494.58240	1.38648	638.40808	1541.55005	-213.37874	722.56744	1295.85168	-314.51807	702.92212	992.60529	-264.92239	746.91516	976.70917	-260.60562	593.37421	795.18262	-308.70450	635.16156	777.33636	-316.45654	572.27832	724.16211	113.66927	709.97748	1315.74121	244.10374	706.37024	1035.22998	190.69414	762.80237	1011.68713	213.79128	651.70502	815.64056	268.99155	685.71503	814.40582	276.37787	638.05011	733.47650	-160.04543	727.53241	869.77124	-197.18369	800.31036	837.61310	-157.02301	821.29712	417.30859				-49.36155	990.08136	64.39348	-160.01001	870.88049	39.02322	-101.93217	802.44275	47.89070	72.46554	696.72870	882.83838	136.27573	760.02020	833.36310	179.39389	607.55884	490.42886	194.58855	649.79633	119.68452	139.88412	686.49133	81.65070	231.41240	546.04425	66.82161	163.49327	502.22543	84.99577	-57.17712	782.47418	1355.86938	-35.68174	848.83710	1200.78052	-24.47914	870.93988	942.07086	-49.03400	670.33966	1253.88171	-49.75622	649.99640	1122.86658	-158.66388	852.27582	1183.58069	
2091	10.450	-76.50016	618.15356	1542.45239	-155.17853	715.66760	1495.66333	0.92965	641.72772	1542.81348	-214.10168	725.40594	1297.05237	-315.18347	706.83612	993.94092	-265.65488	750.28748	978.17114	-262.05676	596.72827	795.89941	-309.14313	642.69983	782.13422	-317.98822	576.31165	724.80023	113.07872	713.22479	1316.70117	243.80479	709.09631	1036.46252	190.44904	766.19476	1013.08203	213.63173	654.33228	816.64392	269.03867	688.32471	815.55414	276.34854	640.43091	734.68359	-160.14697	729.21002	870.24036	-197.39587	803.01508	838.12646	-156.93192	823.89178	417.92163				-47.63681	993.90497	66.26385	-160.03432	870.88068	39.01467	-101.94026	802.63068	48.05152	72.21492	698.73999	883.76721	136.09528	761.93353	834.40649	179.02145	610.50958	490.53650	194.56374	659.13367	120.70139	142.25688	697.81012	84.86992	231.55013	556.32446	67.57026	163.44597	511.85135	84.57423	-57.89651	785.33356	1356.33728	-36.75541	851.45789	1201.54797	-25.20793	872.81604	942.99811	-49.85242	672.85132	1255.09985	-50.09280	652.02997	1123.94299	-159.32271	854.83020	1184.16858	
2092	10.455	-77.11626	621.03943	1543.61743	-155.55873	719.06592	1496.81140	0.52113	644.74896	1543.60718	-214.76390	728.39258	1297.84045	-316.11261	710.16675	995.08057	-266.47931	753.38953	979.16510	-263.49042	600.27197	796.53223	-310.11758	646.94122	783.32440	-319.74289	580.63843	725.39679	112.51368	716.58112	1317.66772	243.24927	711.81512	1037.40735	190.33881	768.43152	1013.99951	213.52095	656.73346	817.77014	269.05783	690.34387	816.69397	276.46255	642.68542	735.95514	-160.43353	731.40161	870.70233	-197.50415	804.39545	838.48798	-156.86783	824.75580	418.49664				-47.18323	994.03632	66.34217	-160.05553	870.88385	38.98800	-101.88696	802.80109	48.17738	71.94878	700.94965	884.61798	135.92918	763.81512	835.25696	178.72639	613.77057	490.64847	194.43092	669.11591	121.55444	141.46121	706.31207	84.96459	231.84229	566.51514	68.21539	163.55304	522.15979	83.84513	-58.34180	788.80646	1357.73743	-38.21682	853.64551	1201.70129	-25.48086	874.88477	943.58911	-50.55954	675.97687	1255.94214	-50.60258	654.26080	1125.07300	-160.12100	857.28693	1184.89343	
2093	10.460	-77.67900	624.26447	1544.26196	-156.01637	722.09497	1497.57166	-0.07376	647.98383	1544.32654	-215.45827	731.09430	1298.85388	-317.27820	713.54706	996.31140	-266.80099	756.44336	979.89337	-265.20447	604.32550	797.22327	-311.36343	650.45465	783.89423	-321.35867	584.77625	725.89136	111.83504	719.46576	1318.73926	243.04437	714.23779	1038.65918	189.77512	771.39661	1015.27991	213.71548	660.01965	818.68964	269.18512	692.33624	817.81799	276.67297	644.97803	737.15417	-160.63820	732.75244	870.93744	-197.66945	806.47089	838.91815	-156.81554	827.24304	419.07166				-49.92871	995.01373	64.51493	-160.07809	871.16016	38.83236	-101.92023	802.84399	48.50978	71.45171	702.78583	885.29401	135.76765	765.89709	836.17682	178.43892	616.94861	490.48703	194.35065	678.38818	122.58323	141.76578	716.99286	86.50811	231.96822	576.83844	68.71555	163.65680	532.52856	83.31982	-59.02052	791.83984	1358.29016	-38.70575	856.48474	1201.61206	-26.04551	877.08392	944.03790	-50.92380	678.30493	1257.26111	-50.87066	656.87988	1126.05847	-160.82440	859.78430	1185.29651	
2094	10.465	-78.18204	627.51691	1545.02698	-156.55736	725.12488	1498.56055	-0.62416	651.09015	1545.18762	-215.96605	733.83398	1299.37231	-317.93143	716.67010	996.95636	-267.44003	759.73608	980.59436	-266.62402	607.79926	797.74506	-312.66644	654.23499	784.26257	-322.90463	588.86566	726.45673	111.28828	722.73651	1319.33081	242.81247	716.97217	1039.77344	189.33868	773.22803	1015.52167	213.48170	661.55872	819.95941	269.24951	694.65265	819.08197	276.72714	647.00574	738.30249	-160.90112	734.94757	871.33539	-197.77649	808.45734	839.15796	-156.13780	829.99677	419.47952				-48.19251	993.07111	65.10499	-160.10121	871.42017	38.83874	-101.96094	803.14014	48.51168	71.15562	704.65021	885.89038	135.63144	767.81342	836.85193	178.13080	620.30951	490.24948	194.31453	687.75940	123.77229	142.15350	727.82483	88.06349	232.16359	587.01233	69.33685	163.61998	542.22571	82.90675	-59.21970	794.73712	1358.91284	-39.38662	858.48737	1201.78247	-26.38258	879.22571	944.51898	-51.42293	681.13025	1257.89392	-51.59520	658.91754	1127.38147	-161.28694	862.46729	1185.71399	
2095	10.470	-78.60950	630.82111	1545.76477	-156.84210	728.34058	1498.71204	-1.01279	654.47467	1545.84619	-216.59920	736.65942	1300.12573	-318.68228	720.35199	997.91040	-268.32190	763.61694	981.34149	-268.13556	611.45062	798.19287				-324.62967	593.08453	726.92914	110.88112	725.70941	1320.20190	242.60262	719.43530	1040.76636	189.19202	776.22986	1016.61243	213.59583	663.72552	820.93542	269.38254	696.78064	820.06030	276.88675	648.97949	739.38904	-161.04866	736.88220	871.44586	-197.93098	810.21515	839.40515	-156.81181	831.31421	419.95984				-48.40897	993.29559	64.63065	-160.11105	871.42181	38.82533	-101.92234	803.31989	48.77369	70.84550	706.39496	886.41840	135.19705	770.53369	838.07001	177.77220	623.64447	489.97388	194.24864	696.95197	124.65809	141.15900	736.11890	88.13203	232.36758	597.27551	69.62531	163.79924	552.23053	82.45539	-59.53148	797.37292	1359.27881	-39.89809	861.75439	1202.37012	-26.74067	880.87177	944.90344	-51.81995	683.48895	1258.75940	-51.70617	660.94971	1128.35974	-161.83693	865.21240	1186.02197	
